<mxfile host="app.diagrams.net" modified="2023-05-24T09:39:09.230Z" agent="Mozilla/5.0 (Windows NT 10.0; Win64; x64) AppleWebKit/537.36 (KHTML, like Gecko) Chrome/113.0.0.0 Safari/537.36 Edg/113.0.1774.50" etag="6BTnyhrguWiblzc9cXJo" version="21.3.2" type="device">
  <diagram name="Страница 1" id="4mitIDvyVvjJ1ASbw0P2">
    <mxGraphModel dx="1908" dy="829" grid="1" gridSize="10" guides="1" tooltips="1" connect="1" arrows="1" fold="1" page="0" pageScale="1" pageWidth="827" pageHeight="1169" math="0" shadow="0">
      <root>
        <mxCell id="0" />
        <mxCell id="1" parent="0" />
        <mxCell id="XaOCIZ9TYFifyEYZo8_j-1" value="Сутності" style="swimlane;fontStyle=0;childLayout=stackLayout;horizontal=1;startSize=30;horizontalStack=0;resizeParent=1;resizeParentMax=0;resizeLast=0;collapsible=1;marginBottom=0;whiteSpace=wrap;html=1;" vertex="1" parent="1">
          <mxGeometry x="64" y="235" width="190" height="180" as="geometry" />
        </mxCell>
        <mxCell id="XaOCIZ9TYFifyEYZo8_j-2" value="participants" style="text;strokeColor=none;fillColor=none;align=left;verticalAlign=middle;spacingLeft=4;spacingRight=4;overflow=hidden;points=[[0,0.5],[1,0.5]];portConstraint=eastwest;rotatable=0;whiteSpace=wrap;html=1;" vertex="1" parent="XaOCIZ9TYFifyEYZo8_j-1">
          <mxGeometry y="30" width="190" height="30" as="geometry" />
        </mxCell>
        <mxCell id="XaOCIZ9TYFifyEYZo8_j-3" value="testings" style="text;strokeColor=none;fillColor=none;align=left;verticalAlign=middle;spacingLeft=4;spacingRight=4;overflow=hidden;points=[[0,0.5],[1,0.5]];portConstraint=eastwest;rotatable=0;whiteSpace=wrap;html=1;" vertex="1" parent="XaOCIZ9TYFifyEYZo8_j-1">
          <mxGeometry y="60" width="190" height="30" as="geometry" />
        </mxCell>
        <mxCell id="XaOCIZ9TYFifyEYZo8_j-4" value="points_of_observation" style="text;strokeColor=none;fillColor=none;align=left;verticalAlign=middle;spacingLeft=4;spacingRight=4;overflow=hidden;points=[[0,0.5],[1,0.5]];portConstraint=eastwest;rotatable=0;whiteSpace=wrap;html=1;" vertex="1" parent="XaOCIZ9TYFifyEYZo8_j-1">
          <mxGeometry y="90" width="190" height="30" as="geometry" />
        </mxCell>
        <mxCell id="XaOCIZ9TYFifyEYZo8_j-5" value="territories" style="text;strokeColor=none;fillColor=none;align=left;verticalAlign=middle;spacingLeft=4;spacingRight=4;overflow=hidden;points=[[0,0.5],[1,0.5]];portConstraint=eastwest;rotatable=0;whiteSpace=wrap;html=1;" vertex="1" parent="XaOCIZ9TYFifyEYZo8_j-1">
          <mxGeometry y="120" width="190" height="30" as="geometry" />
        </mxCell>
        <mxCell id="XaOCIZ9TYFifyEYZo8_j-6" value="educational_institutions" style="text;strokeColor=none;fillColor=none;align=left;verticalAlign=middle;spacingLeft=4;spacingRight=4;overflow=hidden;points=[[0,0.5],[1,0.5]];portConstraint=eastwest;rotatable=0;whiteSpace=wrap;html=1;" vertex="1" parent="XaOCIZ9TYFifyEYZo8_j-1">
          <mxGeometry y="150" width="190" height="30" as="geometry" />
        </mxCell>
        <mxCell id="XaOCIZ9TYFifyEYZo8_j-7" value="Зв&#39;язки:" style="swimlane;fontStyle=0;childLayout=stackLayout;horizontal=1;startSize=30;horizontalStack=0;resizeParent=1;resizeParentMax=0;resizeLast=0;collapsible=1;marginBottom=0;whiteSpace=wrap;html=1;" vertex="1" parent="1">
          <mxGeometry x="284" y="230" width="480" height="190" as="geometry" />
        </mxCell>
        <mxCell id="XaOCIZ9TYFifyEYZo8_j-8" value="testing&amp;nbsp;пов&#39;язане з participant, який виконував дану дисципліну&amp;nbsp;(FK&amp;nbsp;participant_id)" style="text;strokeColor=none;fillColor=none;align=left;verticalAlign=middle;spacingLeft=4;spacingRight=4;overflow=hidden;points=[[0,0.5],[1,0.5]];portConstraint=eastwest;rotatable=0;whiteSpace=wrap;html=1;" vertex="1" parent="XaOCIZ9TYFifyEYZo8_j-7">
          <mxGeometry y="30" width="480" height="40" as="geometry" />
        </mxCell>
        <mxCell id="XaOCIZ9TYFifyEYZo8_j-9" value="testing&amp;nbsp;пов&#39;язане з&amp;nbsp;пунктом проведения point_of_observation (FK point_id)" style="text;strokeColor=none;fillColor=none;align=left;verticalAlign=middle;spacingLeft=4;spacingRight=4;overflow=hidden;points=[[0,0.5],[1,0.5]];portConstraint=eastwest;rotatable=0;whiteSpace=wrap;html=1;" vertex="1" parent="XaOCIZ9TYFifyEYZo8_j-7">
          <mxGeometry y="70" width="480" height="40" as="geometry" />
        </mxCell>
        <mxCell id="XaOCIZ9TYFifyEYZo8_j-10" value="participant&amp;nbsp;пов&#39;язане з territory, до якої він належить&amp;nbsp;(FK ter_id)" style="text;strokeColor=none;fillColor=none;align=left;verticalAlign=middle;spacingLeft=4;spacingRight=4;overflow=hidden;points=[[0,0.5],[1,0.5]];portConstraint=eastwest;rotatable=0;whiteSpace=wrap;html=1;" vertex="1" parent="XaOCIZ9TYFifyEYZo8_j-7">
          <mxGeometry y="110" width="480" height="40" as="geometry" />
        </mxCell>
        <mxCell id="XaOCIZ9TYFifyEYZo8_j-11" value="participant&amp;nbsp;пов&#39;язане з educational_institution, в якому пройшов навчання (FK eo_id)" style="text;strokeColor=none;fillColor=none;align=left;verticalAlign=middle;spacingLeft=4;spacingRight=4;overflow=hidden;points=[[0,0.5],[1,0.5]];portConstraint=eastwest;rotatable=0;whiteSpace=wrap;html=1;" vertex="1" parent="XaOCIZ9TYFifyEYZo8_j-7">
          <mxGeometry y="150" width="480" height="40" as="geometry" />
        </mxCell>
        <mxCell id="XaOCIZ9TYFifyEYZo8_j-12" value="testings ( інформація щодо складання окремого іспиту)" style="shape=table;startSize=30;container=1;collapsible=1;childLayout=tableLayout;fixedRows=1;rowLines=0;fontStyle=1;align=center;resizeLast=1;" vertex="1" parent="1">
          <mxGeometry x="600" y="450" width="340" height="355" as="geometry">
            <mxRectangle x="540" y="240" width="370" height="30" as="alternateBounds" />
          </mxGeometry>
        </mxCell>
        <mxCell id="XaOCIZ9TYFifyEYZo8_j-13" value="" style="shape=partialRectangle;collapsible=0;dropTarget=0;pointerEvents=0;fillColor=none;points=[[0,0.5],[1,0.5]];portConstraint=eastwest;top=0;left=0;right=0;bottom=1;" vertex="1" parent="XaOCIZ9TYFifyEYZo8_j-12">
          <mxGeometry y="30" width="340" height="30" as="geometry" />
        </mxCell>
        <mxCell id="XaOCIZ9TYFifyEYZo8_j-14" value="PK" style="shape=partialRectangle;overflow=hidden;connectable=0;fillColor=none;top=0;left=0;bottom=0;right=0;fontStyle=1;" vertex="1" parent="XaOCIZ9TYFifyEYZo8_j-13">
          <mxGeometry width="30" height="30" as="geometry">
            <mxRectangle width="30" height="30" as="alternateBounds" />
          </mxGeometry>
        </mxCell>
        <mxCell id="XaOCIZ9TYFifyEYZo8_j-15" value="ID" style="shape=partialRectangle;overflow=hidden;connectable=0;fillColor=none;top=0;left=0;bottom=0;right=0;align=left;spacingLeft=6;fontStyle=5;" vertex="1" parent="XaOCIZ9TYFifyEYZo8_j-13">
          <mxGeometry x="30" width="310" height="30" as="geometry">
            <mxRectangle width="310" height="30" as="alternateBounds" />
          </mxGeometry>
        </mxCell>
        <mxCell id="XaOCIZ9TYFifyEYZo8_j-16" value="" style="shape=partialRectangle;collapsible=0;dropTarget=0;pointerEvents=0;fillColor=none;points=[[0,0.5],[1,0.5]];portConstraint=eastwest;top=0;left=0;right=0;bottom=0;" vertex="1" parent="XaOCIZ9TYFifyEYZo8_j-12">
          <mxGeometry y="60" width="340" height="30" as="geometry" />
        </mxCell>
        <mxCell id="XaOCIZ9TYFifyEYZo8_j-17" value="FK" style="shape=partialRectangle;overflow=hidden;connectable=0;fillColor=none;top=0;left=0;bottom=0;right=0;" vertex="1" parent="XaOCIZ9TYFifyEYZo8_j-16">
          <mxGeometry width="30" height="30" as="geometry">
            <mxRectangle width="30" height="30" as="alternateBounds" />
          </mxGeometry>
        </mxCell>
        <mxCell id="XaOCIZ9TYFifyEYZo8_j-18" value="point_id ( id де учасник здавав один з предметів ЗНО  )" style="shape=partialRectangle;overflow=hidden;connectable=0;fillColor=none;top=0;left=0;bottom=0;right=0;align=left;spacingLeft=6;" vertex="1" parent="XaOCIZ9TYFifyEYZo8_j-16">
          <mxGeometry x="30" width="310" height="30" as="geometry">
            <mxRectangle width="310" height="30" as="alternateBounds" />
          </mxGeometry>
        </mxCell>
        <mxCell id="XaOCIZ9TYFifyEYZo8_j-19" value="" style="shape=partialRectangle;collapsible=0;dropTarget=0;pointerEvents=0;fillColor=none;points=[[0,0.5],[1,0.5]];portConstraint=eastwest;top=0;left=0;right=0;bottom=0;" vertex="1" parent="XaOCIZ9TYFifyEYZo8_j-12">
          <mxGeometry y="90" width="340" height="30" as="geometry" />
        </mxCell>
        <mxCell id="XaOCIZ9TYFifyEYZo8_j-20" value="FK" style="shape=partialRectangle;overflow=hidden;connectable=0;fillColor=none;top=0;left=0;bottom=0;right=0;" vertex="1" parent="XaOCIZ9TYFifyEYZo8_j-19">
          <mxGeometry width="30" height="30" as="geometry">
            <mxRectangle width="30" height="30" as="alternateBounds" />
          </mxGeometry>
        </mxCell>
        <mxCell id="XaOCIZ9TYFifyEYZo8_j-21" value="participant_id ( id самого учасника )" style="shape=partialRectangle;overflow=hidden;connectable=0;fillColor=none;top=0;left=0;bottom=0;right=0;align=left;spacingLeft=6;" vertex="1" parent="XaOCIZ9TYFifyEYZo8_j-19">
          <mxGeometry x="30" width="310" height="30" as="geometry">
            <mxRectangle width="310" height="30" as="alternateBounds" />
          </mxGeometry>
        </mxCell>
        <mxCell id="XaOCIZ9TYFifyEYZo8_j-22" value="" style="shape=partialRectangle;collapsible=0;dropTarget=0;pointerEvents=0;fillColor=none;points=[[0,0.5],[1,0.5]];portConstraint=eastwest;top=0;left=0;right=0;bottom=0;" vertex="1" parent="XaOCIZ9TYFifyEYZo8_j-12">
          <mxGeometry y="120" width="340" height="30" as="geometry" />
        </mxCell>
        <mxCell id="XaOCIZ9TYFifyEYZo8_j-23" value="" style="shape=partialRectangle;overflow=hidden;connectable=0;fillColor=none;top=0;left=0;bottom=0;right=0;" vertex="1" parent="XaOCIZ9TYFifyEYZo8_j-22">
          <mxGeometry width="30" height="30" as="geometry">
            <mxRectangle width="30" height="30" as="alternateBounds" />
          </mxGeometry>
        </mxCell>
        <mxCell id="XaOCIZ9TYFifyEYZo8_j-24" value="year ( рік написання ЗНО )" style="shape=partialRectangle;overflow=hidden;connectable=0;fillColor=none;top=0;left=0;bottom=0;right=0;align=left;spacingLeft=6;" vertex="1" parent="XaOCIZ9TYFifyEYZo8_j-22">
          <mxGeometry x="30" width="310" height="30" as="geometry">
            <mxRectangle width="310" height="30" as="alternateBounds" />
          </mxGeometry>
        </mxCell>
        <mxCell id="XaOCIZ9TYFifyEYZo8_j-25" value="" style="shape=partialRectangle;collapsible=0;dropTarget=0;pointerEvents=0;fillColor=none;points=[[0,0.5],[1,0.5]];portConstraint=eastwest;top=0;left=0;right=0;bottom=0;" vertex="1" parent="XaOCIZ9TYFifyEYZo8_j-12">
          <mxGeometry y="150" width="340" height="30" as="geometry" />
        </mxCell>
        <mxCell id="XaOCIZ9TYFifyEYZo8_j-26" value="" style="shape=partialRectangle;overflow=hidden;connectable=0;fillColor=none;top=0;left=0;bottom=0;right=0;" vertex="1" parent="XaOCIZ9TYFifyEYZo8_j-25">
          <mxGeometry width="30" height="30" as="geometry">
            <mxRectangle width="30" height="30" as="alternateBounds" />
          </mxGeometry>
        </mxCell>
        <mxCell id="XaOCIZ9TYFifyEYZo8_j-27" value="Test ( назва предмету )" style="shape=partialRectangle;overflow=hidden;connectable=0;fillColor=none;top=0;left=0;bottom=0;right=0;align=left;spacingLeft=6;" vertex="1" parent="XaOCIZ9TYFifyEYZo8_j-25">
          <mxGeometry x="30" width="310" height="30" as="geometry">
            <mxRectangle width="310" height="30" as="alternateBounds" />
          </mxGeometry>
        </mxCell>
        <mxCell id="XaOCIZ9TYFifyEYZo8_j-28" value="" style="shape=partialRectangle;collapsible=0;dropTarget=0;pointerEvents=0;fillColor=none;points=[[0,0.5],[1,0.5]];portConstraint=eastwest;top=0;left=0;right=0;bottom=0;" vertex="1" parent="XaOCIZ9TYFifyEYZo8_j-12">
          <mxGeometry y="180" width="340" height="30" as="geometry" />
        </mxCell>
        <mxCell id="XaOCIZ9TYFifyEYZo8_j-29" value="" style="shape=partialRectangle;overflow=hidden;connectable=0;fillColor=none;top=0;left=0;bottom=0;right=0;" vertex="1" parent="XaOCIZ9TYFifyEYZo8_j-28">
          <mxGeometry width="30" height="30" as="geometry">
            <mxRectangle width="30" height="30" as="alternateBounds" />
          </mxGeometry>
        </mxCell>
        <mxCell id="XaOCIZ9TYFifyEYZo8_j-30" value="AdaptScale (встановлення адаптивного порогу)" style="shape=partialRectangle;overflow=hidden;connectable=0;fillColor=none;top=0;left=0;bottom=0;right=0;align=left;spacingLeft=6;" vertex="1" parent="XaOCIZ9TYFifyEYZo8_j-28">
          <mxGeometry x="30" width="310" height="30" as="geometry">
            <mxRectangle width="310" height="30" as="alternateBounds" />
          </mxGeometry>
        </mxCell>
        <mxCell id="XaOCIZ9TYFifyEYZo8_j-31" value="" style="shape=partialRectangle;collapsible=0;dropTarget=0;pointerEvents=0;fillColor=none;points=[[0,0.5],[1,0.5]];portConstraint=eastwest;top=0;left=0;right=0;bottom=0;" vertex="1" parent="XaOCIZ9TYFifyEYZo8_j-12">
          <mxGeometry y="210" width="340" height="25" as="geometry" />
        </mxCell>
        <mxCell id="XaOCIZ9TYFifyEYZo8_j-32" value="" style="shape=partialRectangle;overflow=hidden;connectable=0;fillColor=none;top=0;left=0;bottom=0;right=0;" vertex="1" parent="XaOCIZ9TYFifyEYZo8_j-31">
          <mxGeometry width="30" height="25" as="geometry">
            <mxRectangle width="30" height="25" as="alternateBounds" />
          </mxGeometry>
        </mxCell>
        <mxCell id="XaOCIZ9TYFifyEYZo8_j-33" value="Ball (тестовий балл)" style="shape=partialRectangle;overflow=hidden;connectable=0;fillColor=none;top=0;left=0;bottom=0;right=0;align=left;spacingLeft=6;" vertex="1" parent="XaOCIZ9TYFifyEYZo8_j-31">
          <mxGeometry x="30" width="310" height="25" as="geometry">
            <mxRectangle width="310" height="25" as="alternateBounds" />
          </mxGeometry>
        </mxCell>
        <mxCell id="XaOCIZ9TYFifyEYZo8_j-34" value="" style="shape=partialRectangle;collapsible=0;dropTarget=0;pointerEvents=0;fillColor=none;points=[[0,0.5],[1,0.5]];portConstraint=eastwest;top=0;left=0;right=0;bottom=0;" vertex="1" parent="XaOCIZ9TYFifyEYZo8_j-12">
          <mxGeometry y="235" width="340" height="30" as="geometry" />
        </mxCell>
        <mxCell id="XaOCIZ9TYFifyEYZo8_j-35" value="" style="shape=partialRectangle;overflow=hidden;connectable=0;fillColor=none;top=0;left=0;bottom=0;right=0;" vertex="1" parent="XaOCIZ9TYFifyEYZo8_j-34">
          <mxGeometry width="30" height="30" as="geometry">
            <mxRectangle width="30" height="30" as="alternateBounds" />
          </mxGeometry>
        </mxCell>
        <mxCell id="XaOCIZ9TYFifyEYZo8_j-36" value="Ball12 ( оцінка по ДПА)" style="shape=partialRectangle;overflow=hidden;connectable=0;fillColor=none;top=0;left=0;bottom=0;right=0;align=left;spacingLeft=6;" vertex="1" parent="XaOCIZ9TYFifyEYZo8_j-34">
          <mxGeometry x="30" width="310" height="30" as="geometry">
            <mxRectangle width="310" height="30" as="alternateBounds" />
          </mxGeometry>
        </mxCell>
        <mxCell id="XaOCIZ9TYFifyEYZo8_j-37" value="" style="shape=partialRectangle;collapsible=0;dropTarget=0;pointerEvents=0;fillColor=none;points=[[0,0.5],[1,0.5]];portConstraint=eastwest;top=0;left=0;right=0;bottom=0;" vertex="1" parent="XaOCIZ9TYFifyEYZo8_j-12">
          <mxGeometry y="265" width="340" height="30" as="geometry" />
        </mxCell>
        <mxCell id="XaOCIZ9TYFifyEYZo8_j-38" value="" style="shape=partialRectangle;overflow=hidden;connectable=0;fillColor=none;top=0;left=0;bottom=0;right=0;" vertex="1" parent="XaOCIZ9TYFifyEYZo8_j-37">
          <mxGeometry width="30" height="30" as="geometry">
            <mxRectangle width="30" height="30" as="alternateBounds" />
          </mxGeometry>
        </mxCell>
        <mxCell id="XaOCIZ9TYFifyEYZo8_j-39" value="Ball100 ( оцінка  от 100 до 200)" style="shape=partialRectangle;overflow=hidden;connectable=0;fillColor=none;top=0;left=0;bottom=0;right=0;align=left;spacingLeft=6;" vertex="1" parent="XaOCIZ9TYFifyEYZo8_j-37">
          <mxGeometry x="30" width="310" height="30" as="geometry">
            <mxRectangle width="310" height="30" as="alternateBounds" />
          </mxGeometry>
        </mxCell>
        <mxCell id="XaOCIZ9TYFifyEYZo8_j-40" value="" style="shape=partialRectangle;collapsible=0;dropTarget=0;pointerEvents=0;fillColor=none;points=[[0,0.5],[1,0.5]];portConstraint=eastwest;top=0;left=0;right=0;bottom=0;" vertex="1" parent="XaOCIZ9TYFifyEYZo8_j-12">
          <mxGeometry y="295" width="340" height="30" as="geometry" />
        </mxCell>
        <mxCell id="XaOCIZ9TYFifyEYZo8_j-41" value="" style="shape=partialRectangle;overflow=hidden;connectable=0;fillColor=none;top=0;left=0;bottom=0;right=0;" vertex="1" parent="XaOCIZ9TYFifyEYZo8_j-40">
          <mxGeometry width="30" height="30" as="geometry">
            <mxRectangle width="30" height="30" as="alternateBounds" />
          </mxGeometry>
        </mxCell>
        <mxCell id="XaOCIZ9TYFifyEYZo8_j-42" value="TestStatus ( Результат тесту)" style="shape=partialRectangle;overflow=hidden;connectable=0;fillColor=none;top=0;left=0;bottom=0;right=0;align=left;spacingLeft=6;" vertex="1" parent="XaOCIZ9TYFifyEYZo8_j-40">
          <mxGeometry x="30" width="310" height="30" as="geometry">
            <mxRectangle width="310" height="30" as="alternateBounds" />
          </mxGeometry>
        </mxCell>
        <mxCell id="XaOCIZ9TYFifyEYZo8_j-43" value="" style="shape=partialRectangle;collapsible=0;dropTarget=0;pointerEvents=0;fillColor=none;points=[[0,0.5],[1,0.5]];portConstraint=eastwest;top=0;left=0;right=0;bottom=0;" vertex="1" parent="XaOCIZ9TYFifyEYZo8_j-12">
          <mxGeometry y="325" width="340" height="30" as="geometry" />
        </mxCell>
        <mxCell id="XaOCIZ9TYFifyEYZo8_j-44" value="" style="shape=partialRectangle;overflow=hidden;connectable=0;fillColor=none;top=0;left=0;bottom=0;right=0;" vertex="1" parent="XaOCIZ9TYFifyEYZo8_j-43">
          <mxGeometry width="30" height="30" as="geometry">
            <mxRectangle width="30" height="30" as="alternateBounds" />
          </mxGeometry>
        </mxCell>
        <mxCell id="XaOCIZ9TYFifyEYZo8_j-45" value="Lang ( Мова складання тесту )" style="shape=partialRectangle;overflow=hidden;connectable=0;fillColor=none;top=0;left=0;bottom=0;right=0;align=left;spacingLeft=6;" vertex="1" parent="XaOCIZ9TYFifyEYZo8_j-43">
          <mxGeometry x="30" width="310" height="30" as="geometry">
            <mxRectangle width="310" height="30" as="alternateBounds" />
          </mxGeometry>
        </mxCell>
        <mxCell id="XaOCIZ9TYFifyEYZo8_j-52" value="educational_institutions ( інформація&lt;br&gt;&amp;nbsp;щодо закладу в якому &lt;br&gt;учасник здобував освіту )" style="shape=table;startSize=50;container=1;collapsible=1;childLayout=tableLayout;fixedRows=1;rowLines=0;fontStyle=1;align=center;resizeLast=1;html=1;" vertex="1" parent="1">
          <mxGeometry x="-60" y="670" width="260" height="290" as="geometry" />
        </mxCell>
        <mxCell id="XaOCIZ9TYFifyEYZo8_j-53" value="" style="shape=tableRow;horizontal=0;startSize=0;swimlaneHead=0;swimlaneBody=0;fillColor=none;collapsible=0;dropTarget=0;points=[[0,0.5],[1,0.5]];portConstraint=eastwest;top=0;left=0;right=0;bottom=1;" vertex="1" parent="XaOCIZ9TYFifyEYZo8_j-52">
          <mxGeometry y="50" width="260" height="30" as="geometry" />
        </mxCell>
        <mxCell id="XaOCIZ9TYFifyEYZo8_j-54" value="PK" style="shape=partialRectangle;connectable=0;fillColor=none;top=0;left=0;bottom=0;right=0;fontStyle=1;overflow=hidden;whiteSpace=wrap;html=1;" vertex="1" parent="XaOCIZ9TYFifyEYZo8_j-53">
          <mxGeometry width="30" height="30" as="geometry">
            <mxRectangle width="30" height="30" as="alternateBounds" />
          </mxGeometry>
        </mxCell>
        <mxCell id="XaOCIZ9TYFifyEYZo8_j-55" value="ID" style="shape=partialRectangle;connectable=0;fillColor=none;top=0;left=0;bottom=0;right=0;align=left;spacingLeft=6;fontStyle=5;overflow=hidden;whiteSpace=wrap;html=1;" vertex="1" parent="XaOCIZ9TYFifyEYZo8_j-53">
          <mxGeometry x="30" width="230" height="30" as="geometry">
            <mxRectangle width="230" height="30" as="alternateBounds" />
          </mxGeometry>
        </mxCell>
        <mxCell id="XaOCIZ9TYFifyEYZo8_j-56" value="" style="shape=tableRow;horizontal=0;startSize=0;swimlaneHead=0;swimlaneBody=0;fillColor=none;collapsible=0;dropTarget=0;points=[[0,0.5],[1,0.5]];portConstraint=eastwest;top=0;left=0;right=0;bottom=0;" vertex="1" parent="XaOCIZ9TYFifyEYZo8_j-52">
          <mxGeometry y="80" width="260" height="35" as="geometry" />
        </mxCell>
        <mxCell id="XaOCIZ9TYFifyEYZo8_j-57" value="" style="shape=partialRectangle;connectable=0;fillColor=none;top=0;left=0;bottom=0;right=0;editable=1;overflow=hidden;whiteSpace=wrap;html=1;" vertex="1" parent="XaOCIZ9TYFifyEYZo8_j-56">
          <mxGeometry width="30" height="35" as="geometry">
            <mxRectangle width="30" height="35" as="alternateBounds" />
          </mxGeometry>
        </mxCell>
        <mxCell id="XaOCIZ9TYFifyEYZo8_j-58" value="TypeName (&amp;nbsp;Тип закладу освіти )" style="shape=partialRectangle;connectable=0;fillColor=none;top=0;left=0;bottom=0;right=0;align=left;spacingLeft=6;overflow=hidden;whiteSpace=wrap;html=1;" vertex="1" parent="XaOCIZ9TYFifyEYZo8_j-56">
          <mxGeometry x="30" width="230" height="35" as="geometry">
            <mxRectangle width="230" height="35" as="alternateBounds" />
          </mxGeometry>
        </mxCell>
        <mxCell id="XaOCIZ9TYFifyEYZo8_j-59" value="" style="shape=tableRow;horizontal=0;startSize=0;swimlaneHead=0;swimlaneBody=0;fillColor=none;collapsible=0;dropTarget=0;points=[[0,0.5],[1,0.5]];portConstraint=eastwest;top=0;left=0;right=0;bottom=0;" vertex="1" parent="XaOCIZ9TYFifyEYZo8_j-52">
          <mxGeometry y="115" width="260" height="35" as="geometry" />
        </mxCell>
        <mxCell id="XaOCIZ9TYFifyEYZo8_j-60" value="" style="shape=partialRectangle;connectable=0;fillColor=none;top=0;left=0;bottom=0;right=0;editable=1;overflow=hidden;whiteSpace=wrap;html=1;" vertex="1" parent="XaOCIZ9TYFifyEYZo8_j-59">
          <mxGeometry width="30" height="35" as="geometry">
            <mxRectangle width="30" height="35" as="alternateBounds" />
          </mxGeometry>
        </mxCell>
        <mxCell id="XaOCIZ9TYFifyEYZo8_j-61" value="RegName (Регіон, де розташований заклад освіти )" style="shape=partialRectangle;connectable=0;fillColor=none;top=0;left=0;bottom=0;right=0;align=left;spacingLeft=6;overflow=hidden;whiteSpace=wrap;html=1;" vertex="1" parent="XaOCIZ9TYFifyEYZo8_j-59">
          <mxGeometry x="30" width="230" height="35" as="geometry">
            <mxRectangle width="230" height="35" as="alternateBounds" />
          </mxGeometry>
        </mxCell>
        <mxCell id="XaOCIZ9TYFifyEYZo8_j-62" value="" style="shape=tableRow;horizontal=0;startSize=0;swimlaneHead=0;swimlaneBody=0;fillColor=none;collapsible=0;dropTarget=0;points=[[0,0.5],[1,0.5]];portConstraint=eastwest;top=0;left=0;right=0;bottom=0;" vertex="1" parent="XaOCIZ9TYFifyEYZo8_j-52">
          <mxGeometry y="150" width="260" height="35" as="geometry" />
        </mxCell>
        <mxCell id="XaOCIZ9TYFifyEYZo8_j-63" value="" style="shape=partialRectangle;connectable=0;fillColor=none;top=0;left=0;bottom=0;right=0;editable=1;overflow=hidden;whiteSpace=wrap;html=1;" vertex="1" parent="XaOCIZ9TYFifyEYZo8_j-62">
          <mxGeometry width="30" height="35" as="geometry">
            <mxRectangle width="30" height="35" as="alternateBounds" />
          </mxGeometry>
        </mxCell>
        <mxCell id="XaOCIZ9TYFifyEYZo8_j-64" value="AreaName (Район/Місто, де розташований заклад освіти )" style="shape=partialRectangle;connectable=0;fillColor=none;top=0;left=0;bottom=0;right=0;align=left;spacingLeft=6;overflow=hidden;whiteSpace=wrap;html=1;" vertex="1" parent="XaOCIZ9TYFifyEYZo8_j-62">
          <mxGeometry x="30" width="230" height="35" as="geometry">
            <mxRectangle width="230" height="35" as="alternateBounds" />
          </mxGeometry>
        </mxCell>
        <mxCell id="XaOCIZ9TYFifyEYZo8_j-65" value="" style="shape=tableRow;horizontal=0;startSize=0;swimlaneHead=0;swimlaneBody=0;fillColor=none;collapsible=0;dropTarget=0;points=[[0,0.5],[1,0.5]];portConstraint=eastwest;top=0;left=0;right=0;bottom=0;" vertex="1" parent="XaOCIZ9TYFifyEYZo8_j-52">
          <mxGeometry y="185" width="260" height="35" as="geometry" />
        </mxCell>
        <mxCell id="XaOCIZ9TYFifyEYZo8_j-66" value="" style="shape=partialRectangle;connectable=0;fillColor=none;top=0;left=0;bottom=0;right=0;editable=1;overflow=hidden;whiteSpace=wrap;html=1;" vertex="1" parent="XaOCIZ9TYFifyEYZo8_j-65">
          <mxGeometry width="30" height="35" as="geometry">
            <mxRectangle width="30" height="35" as="alternateBounds" />
          </mxGeometry>
        </mxCell>
        <mxCell id="XaOCIZ9TYFifyEYZo8_j-67" value="TerName (Населений пункт, де розташований заклад освіти )&lt;span style=&quot;border-color: var(--border-color); font-size: 14px; background-color: rgb(250, 250, 250); font-family: Roboto, -apple-system, &amp;quot;apple color emoji&amp;quot;, BlinkMacSystemFont, &amp;quot;Segoe UI&amp;quot;, Oxygen-Sans, Ubuntu, Cantarell, &amp;quot;Helvetica Neue&amp;quot;, sans-serif;&quot;&gt;&lt;br style=&quot;border-color: var(--border-color);&quot;&gt;&lt;/span&gt;" style="shape=partialRectangle;connectable=0;fillColor=none;top=0;left=0;bottom=0;right=0;align=left;spacingLeft=6;overflow=hidden;whiteSpace=wrap;html=1;" vertex="1" parent="XaOCIZ9TYFifyEYZo8_j-65">
          <mxGeometry x="30" width="230" height="35" as="geometry">
            <mxRectangle width="230" height="35" as="alternateBounds" />
          </mxGeometry>
        </mxCell>
        <mxCell id="XaOCIZ9TYFifyEYZo8_j-68" value="" style="shape=tableRow;horizontal=0;startSize=0;swimlaneHead=0;swimlaneBody=0;fillColor=none;collapsible=0;dropTarget=0;points=[[0,0.5],[1,0.5]];portConstraint=eastwest;top=0;left=0;right=0;bottom=0;" vertex="1" parent="XaOCIZ9TYFifyEYZo8_j-52">
          <mxGeometry y="220" width="260" height="35" as="geometry" />
        </mxCell>
        <mxCell id="XaOCIZ9TYFifyEYZo8_j-69" value="" style="shape=partialRectangle;connectable=0;fillColor=none;top=0;left=0;bottom=0;right=0;editable=1;overflow=hidden;whiteSpace=wrap;html=1;" vertex="1" parent="XaOCIZ9TYFifyEYZo8_j-68">
          <mxGeometry width="30" height="35" as="geometry">
            <mxRectangle width="30" height="35" as="alternateBounds" />
          </mxGeometry>
        </mxCell>
        <mxCell id="XaOCIZ9TYFifyEYZo8_j-70" value="Parent (Орган, якому підпорядковується заклад освіти )" style="shape=partialRectangle;connectable=0;fillColor=none;top=0;left=0;bottom=0;right=0;align=left;spacingLeft=6;overflow=hidden;whiteSpace=wrap;html=1;" vertex="1" parent="XaOCIZ9TYFifyEYZo8_j-68">
          <mxGeometry x="30" width="230" height="35" as="geometry">
            <mxRectangle width="230" height="35" as="alternateBounds" />
          </mxGeometry>
        </mxCell>
        <mxCell id="XaOCIZ9TYFifyEYZo8_j-71" value="" style="shape=tableRow;horizontal=0;startSize=0;swimlaneHead=0;swimlaneBody=0;fillColor=none;collapsible=0;dropTarget=0;points=[[0,0.5],[1,0.5]];portConstraint=eastwest;top=0;left=0;right=0;bottom=0;" vertex="1" parent="XaOCIZ9TYFifyEYZo8_j-52">
          <mxGeometry y="255" width="260" height="35" as="geometry" />
        </mxCell>
        <mxCell id="XaOCIZ9TYFifyEYZo8_j-72" value="" style="shape=partialRectangle;connectable=0;fillColor=none;top=0;left=0;bottom=0;right=0;editable=1;overflow=hidden;whiteSpace=wrap;html=1;" vertex="1" parent="XaOCIZ9TYFifyEYZo8_j-71">
          <mxGeometry width="30" height="35" as="geometry">
            <mxRectangle width="30" height="35" as="alternateBounds" />
          </mxGeometry>
        </mxCell>
        <mxCell id="XaOCIZ9TYFifyEYZo8_j-73" value="Name (Назва закладу освіти учасника )" style="shape=partialRectangle;connectable=0;fillColor=none;top=0;left=0;bottom=0;right=0;align=left;spacingLeft=6;overflow=hidden;whiteSpace=wrap;html=1;" vertex="1" parent="XaOCIZ9TYFifyEYZo8_j-71">
          <mxGeometry x="30" width="230" height="35" as="geometry">
            <mxRectangle width="230" height="35" as="alternateBounds" />
          </mxGeometry>
        </mxCell>
        <mxCell id="XaOCIZ9TYFifyEYZo8_j-74" value="points_of_observation ( інформація закладу&lt;br&gt;де учасник здає ЗНО )" style="shape=table;startSize=40;container=1;collapsible=1;childLayout=tableLayout;fixedRows=1;rowLines=0;fontStyle=1;align=center;resizeLast=1;html=1;" vertex="1" parent="1">
          <mxGeometry x="600" y="820" width="340" height="220" as="geometry" />
        </mxCell>
        <mxCell id="XaOCIZ9TYFifyEYZo8_j-75" value="" style="shape=tableRow;horizontal=0;startSize=0;swimlaneHead=0;swimlaneBody=0;fillColor=none;collapsible=0;dropTarget=0;points=[[0,0.5],[1,0.5]];portConstraint=eastwest;top=0;left=0;right=0;bottom=1;" vertex="1" parent="XaOCIZ9TYFifyEYZo8_j-74">
          <mxGeometry y="40" width="340" height="30" as="geometry" />
        </mxCell>
        <mxCell id="XaOCIZ9TYFifyEYZo8_j-76" value="PK" style="shape=partialRectangle;connectable=0;fillColor=none;top=0;left=0;bottom=0;right=0;fontStyle=1;overflow=hidden;whiteSpace=wrap;html=1;" vertex="1" parent="XaOCIZ9TYFifyEYZo8_j-75">
          <mxGeometry width="30" height="30" as="geometry">
            <mxRectangle width="30" height="30" as="alternateBounds" />
          </mxGeometry>
        </mxCell>
        <mxCell id="XaOCIZ9TYFifyEYZo8_j-77" value="ID" style="shape=partialRectangle;connectable=0;fillColor=none;top=0;left=0;bottom=0;right=0;align=left;spacingLeft=6;fontStyle=5;overflow=hidden;whiteSpace=wrap;html=1;" vertex="1" parent="XaOCIZ9TYFifyEYZo8_j-75">
          <mxGeometry x="30" width="310" height="30" as="geometry">
            <mxRectangle width="310" height="30" as="alternateBounds" />
          </mxGeometry>
        </mxCell>
        <mxCell id="XaOCIZ9TYFifyEYZo8_j-78" value="" style="shape=tableRow;horizontal=0;startSize=0;swimlaneHead=0;swimlaneBody=0;fillColor=none;collapsible=0;dropTarget=0;points=[[0,0.5],[1,0.5]];portConstraint=eastwest;top=0;left=0;right=0;bottom=0;" vertex="1" parent="XaOCIZ9TYFifyEYZo8_j-74">
          <mxGeometry y="70" width="340" height="30" as="geometry" />
        </mxCell>
        <mxCell id="XaOCIZ9TYFifyEYZo8_j-79" value="" style="shape=partialRectangle;connectable=0;fillColor=none;top=0;left=0;bottom=0;right=0;editable=1;overflow=hidden;whiteSpace=wrap;html=1;" vertex="1" parent="XaOCIZ9TYFifyEYZo8_j-78">
          <mxGeometry width="30" height="30" as="geometry">
            <mxRectangle width="30" height="30" as="alternateBounds" />
          </mxGeometry>
        </mxCell>
        <mxCell id="XaOCIZ9TYFifyEYZo8_j-80" value="Name (Назва пункту проведення ЗНО)" style="shape=partialRectangle;connectable=0;fillColor=none;top=0;left=0;bottom=0;right=0;align=left;spacingLeft=6;overflow=hidden;whiteSpace=wrap;html=1;" vertex="1" parent="XaOCIZ9TYFifyEYZo8_j-78">
          <mxGeometry x="30" width="310" height="30" as="geometry">
            <mxRectangle width="310" height="30" as="alternateBounds" />
          </mxGeometry>
        </mxCell>
        <mxCell id="XaOCIZ9TYFifyEYZo8_j-81" value="" style="shape=tableRow;horizontal=0;startSize=0;swimlaneHead=0;swimlaneBody=0;fillColor=none;collapsible=0;dropTarget=0;points=[[0,0.5],[1,0.5]];portConstraint=eastwest;top=0;left=0;right=0;bottom=0;" vertex="1" parent="XaOCIZ9TYFifyEYZo8_j-74">
          <mxGeometry y="100" width="340" height="40" as="geometry" />
        </mxCell>
        <mxCell id="XaOCIZ9TYFifyEYZo8_j-82" value="" style="shape=partialRectangle;connectable=0;fillColor=none;top=0;left=0;bottom=0;right=0;editable=1;overflow=hidden;whiteSpace=wrap;html=1;" vertex="1" parent="XaOCIZ9TYFifyEYZo8_j-81">
          <mxGeometry width="30" height="40" as="geometry">
            <mxRectangle width="30" height="40" as="alternateBounds" />
          </mxGeometry>
        </mxCell>
        <mxCell id="XaOCIZ9TYFifyEYZo8_j-83" value="RegName (Регіон, де розташований пункт проведення ЗНО)" style="shape=partialRectangle;connectable=0;fillColor=none;top=0;left=0;bottom=0;right=0;align=left;spacingLeft=6;overflow=hidden;whiteSpace=wrap;html=1;" vertex="1" parent="XaOCIZ9TYFifyEYZo8_j-81">
          <mxGeometry x="30" width="310" height="40" as="geometry">
            <mxRectangle width="310" height="40" as="alternateBounds" />
          </mxGeometry>
        </mxCell>
        <mxCell id="XaOCIZ9TYFifyEYZo8_j-84" value="" style="shape=tableRow;horizontal=0;startSize=0;swimlaneHead=0;swimlaneBody=0;fillColor=none;collapsible=0;dropTarget=0;points=[[0,0.5],[1,0.5]];portConstraint=eastwest;top=0;left=0;right=0;bottom=0;" vertex="1" parent="XaOCIZ9TYFifyEYZo8_j-74">
          <mxGeometry y="140" width="340" height="30" as="geometry" />
        </mxCell>
        <mxCell id="XaOCIZ9TYFifyEYZo8_j-85" value="" style="shape=partialRectangle;connectable=0;fillColor=none;top=0;left=0;bottom=0;right=0;editable=1;overflow=hidden;whiteSpace=wrap;html=1;" vertex="1" parent="XaOCIZ9TYFifyEYZo8_j-84">
          <mxGeometry width="30" height="30" as="geometry">
            <mxRectangle width="30" height="30" as="alternateBounds" />
          </mxGeometry>
        </mxCell>
        <mxCell id="XaOCIZ9TYFifyEYZo8_j-86" value="AreaName (Район\Місто, де розташований пункт проведення ЗНО)" style="shape=partialRectangle;connectable=0;fillColor=none;top=0;left=0;bottom=0;right=0;align=left;spacingLeft=6;overflow=hidden;whiteSpace=wrap;html=1;" vertex="1" parent="XaOCIZ9TYFifyEYZo8_j-84">
          <mxGeometry x="30" width="310" height="30" as="geometry">
            <mxRectangle width="310" height="30" as="alternateBounds" />
          </mxGeometry>
        </mxCell>
        <mxCell id="XaOCIZ9TYFifyEYZo8_j-87" value="" style="shape=tableRow;horizontal=0;startSize=0;swimlaneHead=0;swimlaneBody=0;fillColor=none;collapsible=0;dropTarget=0;points=[[0,0.5],[1,0.5]];portConstraint=eastwest;top=0;left=0;right=0;bottom=0;" vertex="1" parent="XaOCIZ9TYFifyEYZo8_j-74">
          <mxGeometry y="170" width="340" height="50" as="geometry" />
        </mxCell>
        <mxCell id="XaOCIZ9TYFifyEYZo8_j-88" value="" style="shape=partialRectangle;connectable=0;fillColor=none;top=0;left=0;bottom=0;right=0;editable=1;overflow=hidden;whiteSpace=wrap;html=1;" vertex="1" parent="XaOCIZ9TYFifyEYZo8_j-87">
          <mxGeometry width="30" height="50" as="geometry">
            <mxRectangle width="30" height="50" as="alternateBounds" />
          </mxGeometry>
        </mxCell>
        <mxCell id="XaOCIZ9TYFifyEYZo8_j-89" value="TerName (Населений пункт, де розташований пункт проведення ЗНО)&lt;span style=&quot;border-color: var(--border-color); font-size: 14px; background-color: rgb(250, 250, 250); font-family: Roboto, -apple-system, &amp;quot;apple color emoji&amp;quot;, BlinkMacSystemFont, &amp;quot;Segoe UI&amp;quot;, Oxygen-Sans, Ubuntu, Cantarell, &amp;quot;Helvetica Neue&amp;quot;, sans-serif;&quot;&gt;&lt;br style=&quot;border-color: var(--border-color);&quot;&gt;&lt;/span&gt;" style="shape=partialRectangle;connectable=0;fillColor=none;top=0;left=0;bottom=0;right=0;align=left;spacingLeft=6;overflow=hidden;whiteSpace=wrap;html=1;" vertex="1" parent="XaOCIZ9TYFifyEYZo8_j-87">
          <mxGeometry x="30" width="310" height="50" as="geometry">
            <mxRectangle width="310" height="50" as="alternateBounds" />
          </mxGeometry>
        </mxCell>
        <mxCell id="XaOCIZ9TYFifyEYZo8_j-90" value="participants ( інформація стосовно учасника )" style="shape=table;startSize=30;container=1;collapsible=1;childLayout=tableLayout;fixedRows=1;rowLines=0;fontStyle=1;align=center;resizeLast=1;html=1;" vertex="1" parent="1">
          <mxGeometry x="260" y="460" width="300" height="318" as="geometry" />
        </mxCell>
        <mxCell id="XaOCIZ9TYFifyEYZo8_j-91" value="" style="shape=tableRow;horizontal=0;startSize=0;swimlaneHead=0;swimlaneBody=0;fillColor=none;collapsible=0;dropTarget=0;points=[[0,0.5],[1,0.5]];portConstraint=eastwest;top=0;left=0;right=0;bottom=1;" vertex="1" parent="XaOCIZ9TYFifyEYZo8_j-90">
          <mxGeometry y="30" width="300" height="30" as="geometry" />
        </mxCell>
        <mxCell id="XaOCIZ9TYFifyEYZo8_j-92" value="PK" style="shape=partialRectangle;connectable=0;fillColor=none;top=0;left=0;bottom=0;right=0;fontStyle=1;overflow=hidden;whiteSpace=wrap;html=1;" vertex="1" parent="XaOCIZ9TYFifyEYZo8_j-91">
          <mxGeometry width="30" height="30" as="geometry">
            <mxRectangle width="30" height="30" as="alternateBounds" />
          </mxGeometry>
        </mxCell>
        <mxCell id="XaOCIZ9TYFifyEYZo8_j-93" value="ID" style="shape=partialRectangle;connectable=0;fillColor=none;top=0;left=0;bottom=0;right=0;align=left;spacingLeft=6;fontStyle=5;overflow=hidden;whiteSpace=wrap;html=1;" vertex="1" parent="XaOCIZ9TYFifyEYZo8_j-91">
          <mxGeometry x="30" width="270" height="30" as="geometry">
            <mxRectangle width="270" height="30" as="alternateBounds" />
          </mxGeometry>
        </mxCell>
        <mxCell id="XaOCIZ9TYFifyEYZo8_j-94" value="" style="shape=tableRow;horizontal=0;startSize=0;swimlaneHead=0;swimlaneBody=0;fillColor=none;collapsible=0;dropTarget=0;points=[[0,0.5],[1,0.5]];portConstraint=eastwest;top=0;left=0;right=0;bottom=0;" vertex="1" parent="XaOCIZ9TYFifyEYZo8_j-90">
          <mxGeometry y="60" width="300" height="36" as="geometry" />
        </mxCell>
        <mxCell id="XaOCIZ9TYFifyEYZo8_j-95" value="" style="shape=partialRectangle;connectable=0;fillColor=none;top=0;left=0;bottom=0;right=0;editable=1;overflow=hidden;whiteSpace=wrap;html=1;" vertex="1" parent="XaOCIZ9TYFifyEYZo8_j-94">
          <mxGeometry width="30" height="36" as="geometry">
            <mxRectangle width="30" height="36" as="alternateBounds" />
          </mxGeometry>
        </mxCell>
        <mxCell id="XaOCIZ9TYFifyEYZo8_j-96" value="RegName (Регіон реєстраці / проживання учасника)" style="shape=partialRectangle;connectable=0;fillColor=none;top=0;left=0;bottom=0;right=0;align=left;spacingLeft=6;overflow=hidden;whiteSpace=wrap;html=1;" vertex="1" parent="XaOCIZ9TYFifyEYZo8_j-94">
          <mxGeometry x="30" width="270" height="36" as="geometry">
            <mxRectangle width="270" height="36" as="alternateBounds" />
          </mxGeometry>
        </mxCell>
        <mxCell id="XaOCIZ9TYFifyEYZo8_j-97" value="" style="shape=tableRow;horizontal=0;startSize=0;swimlaneHead=0;swimlaneBody=0;fillColor=none;collapsible=0;dropTarget=0;points=[[0,0.5],[1,0.5]];portConstraint=eastwest;top=0;left=0;right=0;bottom=0;" vertex="1" parent="XaOCIZ9TYFifyEYZo8_j-90">
          <mxGeometry y="96" width="300" height="36" as="geometry" />
        </mxCell>
        <mxCell id="XaOCIZ9TYFifyEYZo8_j-98" value="" style="shape=partialRectangle;connectable=0;fillColor=none;top=0;left=0;bottom=0;right=0;editable=1;overflow=hidden;whiteSpace=wrap;html=1;" vertex="1" parent="XaOCIZ9TYFifyEYZo8_j-97">
          <mxGeometry width="30" height="36" as="geometry">
            <mxRectangle width="30" height="36" as="alternateBounds" />
          </mxGeometry>
        </mxCell>
        <mxCell id="XaOCIZ9TYFifyEYZo8_j-99" value="AreaName (Район/Місто реєстрації/проживання учасника&amp;nbsp;" style="shape=partialRectangle;connectable=0;fillColor=none;top=0;left=0;bottom=0;right=0;align=left;spacingLeft=6;overflow=hidden;whiteSpace=wrap;html=1;" vertex="1" parent="XaOCIZ9TYFifyEYZo8_j-97">
          <mxGeometry x="30" width="270" height="36" as="geometry">
            <mxRectangle width="270" height="36" as="alternateBounds" />
          </mxGeometry>
        </mxCell>
        <mxCell id="XaOCIZ9TYFifyEYZo8_j-100" value="" style="shape=tableRow;horizontal=0;startSize=0;swimlaneHead=0;swimlaneBody=0;fillColor=none;collapsible=0;dropTarget=0;points=[[0,0.5],[1,0.5]];portConstraint=eastwest;top=0;left=0;right=0;bottom=0;" vertex="1" parent="XaOCIZ9TYFifyEYZo8_j-90">
          <mxGeometry y="132" width="300" height="30" as="geometry" />
        </mxCell>
        <mxCell id="XaOCIZ9TYFifyEYZo8_j-101" value="FK" style="shape=partialRectangle;connectable=0;fillColor=none;top=0;left=0;bottom=0;right=0;editable=1;overflow=hidden;whiteSpace=wrap;html=1;" vertex="1" parent="XaOCIZ9TYFifyEYZo8_j-100">
          <mxGeometry width="30" height="30" as="geometry">
            <mxRectangle width="30" height="30" as="alternateBounds" />
          </mxGeometry>
        </mxCell>
        <mxCell id="XaOCIZ9TYFifyEYZo8_j-102" value="TER_id (id території до якої належить учасник)&lt;span style=&quot;border-color: var(--border-color); font-size: 14px; background-color: rgb(250, 250, 250); font-family: Roboto, -apple-system, &amp;quot;apple color emoji&amp;quot;, BlinkMacSystemFont, &amp;quot;Segoe UI&amp;quot;, Oxygen-Sans, Ubuntu, Cantarell, &amp;quot;Helvetica Neue&amp;quot;, sans-serif;&quot;&gt;&lt;br style=&quot;border-color: var(--border-color);&quot;&gt;&lt;/span&gt;" style="shape=partialRectangle;connectable=0;fillColor=none;top=0;left=0;bottom=0;right=0;align=left;spacingLeft=6;overflow=hidden;whiteSpace=wrap;html=1;" vertex="1" parent="XaOCIZ9TYFifyEYZo8_j-100">
          <mxGeometry x="30" width="270" height="30" as="geometry">
            <mxRectangle width="270" height="30" as="alternateBounds" />
          </mxGeometry>
        </mxCell>
        <mxCell id="XaOCIZ9TYFifyEYZo8_j-103" value="" style="shape=tableRow;horizontal=0;startSize=0;swimlaneHead=0;swimlaneBody=0;fillColor=none;collapsible=0;dropTarget=0;points=[[0,0.5],[1,0.5]];portConstraint=eastwest;top=0;left=0;right=0;bottom=0;" vertex="1" parent="XaOCIZ9TYFifyEYZo8_j-90">
          <mxGeometry y="162" width="300" height="36" as="geometry" />
        </mxCell>
        <mxCell id="XaOCIZ9TYFifyEYZo8_j-104" value="" style="shape=partialRectangle;connectable=0;fillColor=none;top=0;left=0;bottom=0;right=0;editable=1;overflow=hidden;whiteSpace=wrap;html=1;" vertex="1" parent="XaOCIZ9TYFifyEYZo8_j-103">
          <mxGeometry width="30" height="36" as="geometry">
            <mxRectangle width="30" height="36" as="alternateBounds" />
          </mxGeometry>
        </mxCell>
        <mxCell id="XaOCIZ9TYFifyEYZo8_j-105" value="ClassProfileName (Профіль навчання учасника/ОКР)" style="shape=partialRectangle;connectable=0;fillColor=none;top=0;left=0;bottom=0;right=0;align=left;spacingLeft=6;overflow=hidden;whiteSpace=wrap;html=1;" vertex="1" parent="XaOCIZ9TYFifyEYZo8_j-103">
          <mxGeometry x="30" width="270" height="36" as="geometry">
            <mxRectangle width="270" height="36" as="alternateBounds" />
          </mxGeometry>
        </mxCell>
        <mxCell id="XaOCIZ9TYFifyEYZo8_j-106" value="" style="shape=tableRow;horizontal=0;startSize=0;swimlaneHead=0;swimlaneBody=0;fillColor=none;collapsible=0;dropTarget=0;points=[[0,0.5],[1,0.5]];portConstraint=eastwest;top=0;left=0;right=0;bottom=0;" vertex="1" parent="XaOCIZ9TYFifyEYZo8_j-90">
          <mxGeometry y="198" width="300" height="30" as="geometry" />
        </mxCell>
        <mxCell id="XaOCIZ9TYFifyEYZo8_j-107" value="" style="shape=partialRectangle;connectable=0;fillColor=none;top=0;left=0;bottom=0;right=0;editable=1;overflow=hidden;whiteSpace=wrap;html=1;" vertex="1" parent="XaOCIZ9TYFifyEYZo8_j-106">
          <mxGeometry width="30" height="30" as="geometry">
            <mxRectangle width="30" height="30" as="alternateBounds" />
          </mxGeometry>
        </mxCell>
        <mxCell id="XaOCIZ9TYFifyEYZo8_j-108" value="ClassLangName (мова навчання учасника )" style="shape=partialRectangle;connectable=0;fillColor=none;top=0;left=0;bottom=0;right=0;align=left;spacingLeft=6;overflow=hidden;whiteSpace=wrap;html=1;" vertex="1" parent="XaOCIZ9TYFifyEYZo8_j-106">
          <mxGeometry x="30" width="270" height="30" as="geometry">
            <mxRectangle width="270" height="30" as="alternateBounds" />
          </mxGeometry>
        </mxCell>
        <mxCell id="XaOCIZ9TYFifyEYZo8_j-109" value="" style="shape=tableRow;horizontal=0;startSize=0;swimlaneHead=0;swimlaneBody=0;fillColor=none;collapsible=0;dropTarget=0;points=[[0,0.5],[1,0.5]];portConstraint=eastwest;top=0;left=0;right=0;bottom=0;" vertex="1" parent="XaOCIZ9TYFifyEYZo8_j-90">
          <mxGeometry y="228" width="300" height="30" as="geometry" />
        </mxCell>
        <mxCell id="XaOCIZ9TYFifyEYZo8_j-110" value="" style="shape=partialRectangle;connectable=0;fillColor=none;top=0;left=0;bottom=0;right=0;editable=1;overflow=hidden;whiteSpace=wrap;html=1;" vertex="1" parent="XaOCIZ9TYFifyEYZo8_j-109">
          <mxGeometry width="30" height="30" as="geometry">
            <mxRectangle width="30" height="30" as="alternateBounds" />
          </mxGeometry>
        </mxCell>
        <mxCell id="XaOCIZ9TYFifyEYZo8_j-111" value="Birth (Рік народження)" style="shape=partialRectangle;connectable=0;fillColor=none;top=0;left=0;bottom=0;right=0;align=left;spacingLeft=6;overflow=hidden;whiteSpace=wrap;html=1;" vertex="1" parent="XaOCIZ9TYFifyEYZo8_j-109">
          <mxGeometry x="30" width="270" height="30" as="geometry">
            <mxRectangle width="270" height="30" as="alternateBounds" />
          </mxGeometry>
        </mxCell>
        <mxCell id="XaOCIZ9TYFifyEYZo8_j-112" value="" style="shape=tableRow;horizontal=0;startSize=0;swimlaneHead=0;swimlaneBody=0;fillColor=none;collapsible=0;dropTarget=0;points=[[0,0.5],[1,0.5]];portConstraint=eastwest;top=0;left=0;right=0;bottom=0;" vertex="1" parent="XaOCIZ9TYFifyEYZo8_j-90">
          <mxGeometry y="258" width="300" height="30" as="geometry" />
        </mxCell>
        <mxCell id="XaOCIZ9TYFifyEYZo8_j-113" value="FK" style="shape=partialRectangle;connectable=0;fillColor=none;top=0;left=0;bottom=0;right=0;editable=1;overflow=hidden;whiteSpace=wrap;html=1;" vertex="1" parent="XaOCIZ9TYFifyEYZo8_j-112">
          <mxGeometry width="30" height="30" as="geometry">
            <mxRectangle width="30" height="30" as="alternateBounds" />
          </mxGeometry>
        </mxCell>
        <mxCell id="XaOCIZ9TYFifyEYZo8_j-114" value="EO_id (id закладу де учасник здобував освіту )" style="shape=partialRectangle;connectable=0;fillColor=none;top=0;left=0;bottom=0;right=0;align=left;spacingLeft=6;overflow=hidden;whiteSpace=wrap;html=1;" vertex="1" parent="XaOCIZ9TYFifyEYZo8_j-112">
          <mxGeometry x="30" width="270" height="30" as="geometry">
            <mxRectangle width="270" height="30" as="alternateBounds" />
          </mxGeometry>
        </mxCell>
        <mxCell id="XaOCIZ9TYFifyEYZo8_j-115" value="" style="shape=tableRow;horizontal=0;startSize=0;swimlaneHead=0;swimlaneBody=0;fillColor=none;collapsible=0;dropTarget=0;points=[[0,0.5],[1,0.5]];portConstraint=eastwest;top=0;left=0;right=0;bottom=0;" vertex="1" parent="XaOCIZ9TYFifyEYZo8_j-90">
          <mxGeometry y="288" width="300" height="30" as="geometry" />
        </mxCell>
        <mxCell id="XaOCIZ9TYFifyEYZo8_j-116" value="" style="shape=partialRectangle;connectable=0;fillColor=none;top=0;left=0;bottom=0;right=0;editable=1;overflow=hidden;whiteSpace=wrap;html=1;" vertex="1" parent="XaOCIZ9TYFifyEYZo8_j-115">
          <mxGeometry width="30" height="30" as="geometry">
            <mxRectangle width="30" height="30" as="alternateBounds" />
          </mxGeometry>
        </mxCell>
        <mxCell id="XaOCIZ9TYFifyEYZo8_j-117" value="" style="shape=partialRectangle;connectable=0;fillColor=none;top=0;left=0;bottom=0;right=0;align=left;spacingLeft=6;overflow=hidden;whiteSpace=wrap;html=1;" vertex="1" parent="XaOCIZ9TYFifyEYZo8_j-115">
          <mxGeometry x="30" width="270" height="30" as="geometry">
            <mxRectangle width="270" height="30" as="alternateBounds" />
          </mxGeometry>
        </mxCell>
        <mxCell id="XaOCIZ9TYFifyEYZo8_j-118" value="territories ( території до яких &lt;br&gt;відносяться учасники та їх типи&amp;nbsp;)" style="shape=table;startSize=35;container=1;collapsible=1;childLayout=tableLayout;fixedRows=1;rowLines=0;fontStyle=1;align=center;resizeLast=1;html=1;" vertex="1" parent="1">
          <mxGeometry x="-60" y="465" width="260" height="155" as="geometry" />
        </mxCell>
        <mxCell id="XaOCIZ9TYFifyEYZo8_j-119" value="" style="shape=tableRow;horizontal=0;startSize=0;swimlaneHead=0;swimlaneBody=0;fillColor=none;collapsible=0;dropTarget=0;points=[[0,0.5],[1,0.5]];portConstraint=eastwest;top=0;left=0;right=0;bottom=1;" vertex="1" parent="XaOCIZ9TYFifyEYZo8_j-118">
          <mxGeometry y="35" width="260" height="30" as="geometry" />
        </mxCell>
        <mxCell id="XaOCIZ9TYFifyEYZo8_j-120" value="PK" style="shape=partialRectangle;connectable=0;fillColor=none;top=0;left=0;bottom=0;right=0;fontStyle=1;overflow=hidden;whiteSpace=wrap;html=1;" vertex="1" parent="XaOCIZ9TYFifyEYZo8_j-119">
          <mxGeometry width="30" height="30" as="geometry">
            <mxRectangle width="30" height="30" as="alternateBounds" />
          </mxGeometry>
        </mxCell>
        <mxCell id="XaOCIZ9TYFifyEYZo8_j-121" value="ID" style="shape=partialRectangle;connectable=0;fillColor=none;top=0;left=0;bottom=0;right=0;align=left;spacingLeft=6;fontStyle=5;overflow=hidden;whiteSpace=wrap;html=1;" vertex="1" parent="XaOCIZ9TYFifyEYZo8_j-119">
          <mxGeometry x="30" width="230" height="30" as="geometry">
            <mxRectangle width="230" height="30" as="alternateBounds" />
          </mxGeometry>
        </mxCell>
        <mxCell id="XaOCIZ9TYFifyEYZo8_j-122" value="" style="shape=tableRow;horizontal=0;startSize=0;swimlaneHead=0;swimlaneBody=0;fillColor=none;collapsible=0;dropTarget=0;points=[[0,0.5],[1,0.5]];portConstraint=eastwest;top=0;left=0;right=0;bottom=0;" vertex="1" parent="XaOCIZ9TYFifyEYZo8_j-118">
          <mxGeometry y="65" width="260" height="50" as="geometry" />
        </mxCell>
        <mxCell id="XaOCIZ9TYFifyEYZo8_j-123" value="" style="shape=partialRectangle;connectable=0;fillColor=none;top=0;left=0;bottom=0;right=0;editable=1;overflow=hidden;whiteSpace=wrap;html=1;" vertex="1" parent="XaOCIZ9TYFifyEYZo8_j-122">
          <mxGeometry width="30" height="50" as="geometry">
            <mxRectangle width="30" height="50" as="alternateBounds" />
          </mxGeometry>
        </mxCell>
        <mxCell id="XaOCIZ9TYFifyEYZo8_j-124" value="Name (Назва населеного пункту реєстрації/проживання учасника)" style="shape=partialRectangle;connectable=0;fillColor=none;top=0;left=0;bottom=0;right=0;align=left;spacingLeft=6;overflow=hidden;whiteSpace=wrap;html=1;" vertex="1" parent="XaOCIZ9TYFifyEYZo8_j-122">
          <mxGeometry x="30" width="230" height="50" as="geometry">
            <mxRectangle width="230" height="50" as="alternateBounds" />
          </mxGeometry>
        </mxCell>
        <mxCell id="XaOCIZ9TYFifyEYZo8_j-125" value="" style="shape=tableRow;horizontal=0;startSize=0;swimlaneHead=0;swimlaneBody=0;fillColor=none;collapsible=0;dropTarget=0;points=[[0,0.5],[1,0.5]];portConstraint=eastwest;top=0;left=0;right=0;bottom=0;" vertex="1" parent="XaOCIZ9TYFifyEYZo8_j-118">
          <mxGeometry y="115" width="260" height="40" as="geometry" />
        </mxCell>
        <mxCell id="XaOCIZ9TYFifyEYZo8_j-126" value="" style="shape=partialRectangle;connectable=0;fillColor=none;top=0;left=0;bottom=0;right=0;editable=1;overflow=hidden;whiteSpace=wrap;html=1;" vertex="1" parent="XaOCIZ9TYFifyEYZo8_j-125">
          <mxGeometry width="30" height="40" as="geometry">
            <mxRectangle width="30" height="40" as="alternateBounds" />
          </mxGeometry>
        </mxCell>
        <mxCell id="XaOCIZ9TYFifyEYZo8_j-127" value="TypeName (Тип території)" style="shape=partialRectangle;connectable=0;fillColor=none;top=0;left=0;bottom=0;right=0;align=left;spacingLeft=6;overflow=hidden;whiteSpace=wrap;html=1;" vertex="1" parent="XaOCIZ9TYFifyEYZo8_j-125">
          <mxGeometry x="30" width="230" height="40" as="geometry">
            <mxRectangle width="230" height="40" as="alternateBounds" />
          </mxGeometry>
        </mxCell>
        <mxCell id="XaOCIZ9TYFifyEYZo8_j-131" style="edgeStyle=orthogonalEdgeStyle;rounded=0;orthogonalLoop=1;jettySize=auto;html=1;entryX=1;entryY=0.5;entryDx=0;entryDy=0;" edge="1" parent="1" source="XaOCIZ9TYFifyEYZo8_j-19" target="XaOCIZ9TYFifyEYZo8_j-91">
          <mxGeometry relative="1" as="geometry" />
        </mxCell>
        <mxCell id="XaOCIZ9TYFifyEYZo8_j-132" style="edgeStyle=orthogonalEdgeStyle;rounded=0;orthogonalLoop=1;jettySize=auto;html=1;exitX=0;exitY=0.5;exitDx=0;exitDy=0;entryX=1;entryY=0.5;entryDx=0;entryDy=0;" edge="1" parent="1" source="XaOCIZ9TYFifyEYZo8_j-100" target="XaOCIZ9TYFifyEYZo8_j-119">
          <mxGeometry relative="1" as="geometry" />
        </mxCell>
        <mxCell id="XaOCIZ9TYFifyEYZo8_j-133" style="edgeStyle=orthogonalEdgeStyle;rounded=0;orthogonalLoop=1;jettySize=auto;html=1;exitX=0;exitY=0.5;exitDx=0;exitDy=0;" edge="1" parent="1" source="XaOCIZ9TYFifyEYZo8_j-112" target="XaOCIZ9TYFifyEYZo8_j-53">
          <mxGeometry relative="1" as="geometry" />
        </mxCell>
        <mxCell id="XaOCIZ9TYFifyEYZo8_j-135" style="edgeStyle=orthogonalEdgeStyle;rounded=0;orthogonalLoop=1;jettySize=auto;html=1;exitX=1;exitY=0.5;exitDx=0;exitDy=0;entryX=1;entryY=0.5;entryDx=0;entryDy=0;" edge="1" parent="1" source="XaOCIZ9TYFifyEYZo8_j-16" target="XaOCIZ9TYFifyEYZo8_j-75">
          <mxGeometry relative="1" as="geometry" />
        </mxCell>
      </root>
    </mxGraphModel>
  </diagram>
</mxfile>
